<svg width="512" height="143.21" viewBox="0 0 135.47 37.89" xmlns="http://www.w3.org/2000/svg"><path d="M0 33.483q0-1.196.573-2.193.573-.996 1.569-1.57.996-.597 2.217-.597 1.246 0 2.242.598 1.021.573 1.594 1.57.573.996.573 2.192 0 1.22-.573 2.242-.573.996-1.594 1.594-.996.573-2.242.573-1.22 0-2.217-.573-.997-.598-1.57-1.594Q0 34.703 0 33.483z" fill="#1a1a1a"/><path d="M0 33.483q0-1.196.573-2.193.573-.996 1.569-1.57.996-.597 2.217-.597 1.246 0 2.242.598 1.021.573 1.594 1.57.573.996.573 2.192 0 1.22-.573 2.242-.573.996-1.594 1.594-.996.573-2.242.573-1.22 0-2.217-.573-.997-.598-1.57-1.594Q0 34.703 0 33.483z" fill="#333"/><g fill="#b3b3b3" stroke-width=".058"><path d="M40.055-.002l4.185.523v36.795h-3.662l-.399-3.463q-1.445 2.043-3.338 3.04t-4.11.996q-4.983 0-7.499-3.662-2.49-3.662-2.49-9.99 0-3.96 1.22-7.075 1.246-3.114 3.562-4.858 2.342-1.768 5.506-1.768 2.242 0 3.96.772 1.744.772 3.065 2.317zM34.125 13.9q-3.313 0-5.081 2.616-1.744 2.59-1.744 7.723 0 5.082 1.594 7.672 1.62 2.591 4.709 2.591 3.711 0 6.452-4.135V17.262q-1.071-1.594-2.616-2.466-1.52-.897-3.313-.897zM75.076 35.993q-1.32.872-3.263 1.37-1.918.523-3.762.523-2.765 0-4.758-.996-1.968-1.021-3.014-2.815t-1.046-4.11V14.32h-6.029V11.08h6.029V5.128l4.185-.499v6.453h9.067l-.498 3.238h-8.57v15.595q0 2.242 1.171 3.363 1.196 1.12 3.837 1.12 2.665 0 5.032-1.245zM104.971 35.993q-1.32.872-3.263 1.37-1.918.523-3.762.523-2.765 0-4.758-.996-1.968-1.021-3.014-2.815t-1.046-4.11V14.32h-6.029V11.08h6.029V5.128l4.185-.499v6.453h9.067l-.498 3.238h-8.57v15.595q0 2.242 1.171 3.363 1.196 1.12 3.837 1.12 2.665 0 5.032-1.245zM131.754 10.51q1.021 0 1.868.149.847.124 1.844.423l-.598 8.869h-3.438v-5.58h-.224q-3.04 0-5.182 2.142-2.142 2.142-3.462 6.477V34.1h5.33v3.214H114.29v-3.213h4.086V14.296h-4.086v-3.214h7.275l.772 6.203q1.594-3.412 3.787-5.082 2.217-1.694 5.63-1.694z"/></g></svg>
